<?xml version="1.0" encoding="utf-8"?>
<svg version="1.1" id="Layer_1" xmlns="http://www.w3.org/2000/svg" xmlns:xlink="http://www.w3.org/1999/xlink" x="0px" y="0px" viewBox="0 0 305 305" style="enable-background:new 0 0 305 305;" xml:space="preserve">
  <style type="text/css">
    .st0 {
      fill: #006BA6;
    }

    .st1 {
      fill: #8F2D56;
    }

    .st2 {
      fill: #22313F;
    }
  </style>
  <g>
    <rect x="45.9" y="7.5" class="st0" width="173.2" height="250" />
    <polygon class="st1" points="219.1,47.5 219.1,257.5 85.9,257.5 85.9,297.5 259.1,297.5 259.1,47.5" />
    <g>
      <path class="st2" d="M259.1,40h-32.5V7.5c0-4.1-3.4-7.5-7.5-7.5H45.9c-4.1,0-7.5,3.4-7.5,7.5v250c0,4.1,3.4,7.5,7.5,7.5h32.5v32.5 c0,4.1,3.4,7.5,7.5,7.5h173.2c4.1,0,7.5-3.4,7.5-7.5v-250C266.6,43.4,263.3,40,259.1,40z M53.4,15h158.2c0,8.3,0,226.3,0,235 c-5.6,0-148,0-158.2,0C53.4,250,53.4,15,53.4,15z M251.6,290H93.4v-25h125.7c4.1,0,7.5-3.4,7.5-7.5V55h25V290z" />
      <path class="st2" d="M92.5,78.7h80.1c4.1,0,7.5-3.4,7.5-7.5s-3.4-7.5-7.5-7.5H92.5c-4.1,0-7.5,3.4-7.5,7.5 C85,75.4,88.3,78.7,92.5,78.7z" />
      <path class="st2" d="M92.5,122.2h80.1c4.1,0,7.5-3.4,7.5-7.5s-3.4-7.5-7.5-7.5H92.5c-4.1,0-7.5,3.4-7.5,7.5S88.3,122.2,92.5,122.2 z" />
      <path class="st2" d="M92.5,165.7h80.1c4.1,0,7.5-3.4,7.5-7.5s-3.4-7.5-7.5-7.5H92.5c-4.1,0-7.5,3.4-7.5,7.5S88.3,165.7,92.5,165.7 z" />
    </g>
  </g>
</svg>
